<svg xmlns="http://www.w3.org/2000/svg" version="1.1" xmlns:xlink="http://www.w3.org/1999/xlink" xmlns:svgjs="http://svgjs.dev/svgjs" width="1500" height="1500" viewBox="0 0 1500 1500"><rect width="1500" height="1500" fill="#000000"></rect><g transform="matrix(0.6666666666666666,0,0,0.6666666666666666,249.39393939393938,679.1381773904815)"><svg viewBox="0 0 396 56" data-background-color="#90adbb" preserveAspectRatio="xMidYMid meet" height="212" width="1500" xmlns="http://www.w3.org/2000/svg" xmlns:xlink="http://www.w3.org/1999/xlink"><g id="tight-bounds" transform="matrix(1,0,0,1,0.2400000000000091,0.07732593962055034)"><svg viewBox="0 0 395.52 55.84534812075893" height="55.84534812075893" width="395.52"><g><svg viewBox="0 0 473.85479395098366 66.90580988795301" height="55.84534812075893" width="395.52"><g transform="matrix(1,0,0,1,0,9.246750860057183)"><svg viewBox="0 0 395.52 48.412308167838646" height="48.412308167838646" width="395.52"><g id="textblocktransform"><svg viewBox="0 0 395.52 48.412308167838646" height="48.412308167838646" width="395.52" id="textblock"><g><svg viewBox="0 0 395.52 48.412308167838646" height="48.412308167838646" width="395.52"><g transform="matrix(1,0,0,1,0,0)"><svg width="395.52" viewBox="2.27 -36.91 315.92 38.669999999999995" height="48.412308167838646" data-palette-color="#f6f6f6"><path d="M12.82 0L12.82-35.16 14.58-35.16 14.58 0 12.82 0ZM9.3 0L9.3-35.16 11.06-35.16 11.06 0 9.3 0ZM5.79 0L5.79-35.16 7.54-35.16 7.54 0 5.79 0ZM2.27 0L2.27-35.16 4.03-35.16 4.03 0 2.27 0ZM46.9-35.16L46.9-14.18 45.14-17.38 45.14-35.16 46.9-35.16ZM50.41-35.16L50.41-8.11 48.65-11.08 48.65-35.16 50.41-35.16ZM26.19 0L26.19-20.97 27.95-17.77 27.95 0 26.19 0ZM22.68 0L22.68-27.29 24.44-24.07 24.44 0 22.68 0ZM43.65 0L23.29-35.16 25.34-35.16 45.7 0 43.65 0ZM47.75 0L27.44-35.16 29.51-35.16 49.85 0 47.75 0ZM51.85 0L31.56-35.16 33.62-35.16 52.17-3.05 52.17-35.16 53.93-35.16 53.93 0 51.85 0ZM39.52 0L20.92-32.13 20.92 0 19.16 0 19.16-35.16 21.26-35.16 41.55 0 39.52 0ZM74.68-16.72L74.68-16.72 71.89-16.72Q66.77-16.72 64.01-18.81 61.25-20.9 61.25-24.56L61.25-24.56Q61.25-27.98 64.5-30.26 67.74-32.54 73.6-32.54L73.6-32.54Q77.51-32.54 80.89-31.47 84.27-30.4 86.52-28.44L86.52-28.44 85.15-27.34Q83.15-28.98 80.12-29.88 77.09-30.79 73.6-30.79L73.6-30.79Q68.45-30.79 65.73-29.03 63.01-27.27 63.01-24.56L63.01-24.56Q63.01-21.63 65.24-20.06 67.48-18.48 71.89-18.48L71.89-18.48 74.58-18.48Q79.78-18.48 82.55-16.39 85.32-14.31 85.32-10.64L85.32-10.64Q85.32-7.23 82.08-4.94 78.83-2.66 72.97-2.66L72.97-2.66Q69.06-2.66 65.68-3.74 62.3-4.81 60.05-6.76L60.05-6.76 61.42-7.86Q63.42-6.23 66.45-5.32 69.48-4.42 72.97-4.42L72.97-4.42Q78.12-4.42 80.84-6.18 83.56-7.93 83.56-10.64L83.56-10.64Q83.56-13.57 81.33-15.15 79.1-16.72 74.68-16.72ZM74.68-13.21L74.68-13.21 71.89-13.21Q65.11-13.21 61.42-16.3 57.73-19.38 57.73-24.56L57.73-24.56Q57.73-26.93 58.78-29 59.83-31.08 61.8-32.65 63.76-34.23 66.82-35.14 69.87-36.06 73.6-36.06L73.6-36.06Q78.32-36.06 82.42-34.63 86.52-33.2 89.25-30.64L89.25-30.64 87.84-29.59Q85.35-31.84 81.61-33.07 77.88-34.3 73.6-34.3L73.6-34.3Q67.01-34.3 63.25-31.52 59.49-28.74 59.49-24.56L59.49-24.56Q59.49-20.14 62.71-17.55 65.94-14.97 71.89-14.97L71.89-14.97 74.58-14.97Q81.81-14.97 81.81-10.64L81.81-10.64Q81.81-8.69 79.6-7.43 77.39-6.18 72.97-6.18L72.97-6.18Q69.87-6.18 67.21-6.9 64.55-7.62 62.81-8.96L62.81-8.96 64.2-10.03Q67.26-7.93 72.97-7.93L72.97-7.93Q76.63-7.93 78.34-8.69 80.05-9.45 80.05-10.64L80.05-10.64Q80.05-12.04 78.85-12.62 77.66-13.21 74.68-13.21ZM74.68-20.24L74.68-20.24 71.89-20.24Q64.77-20.24 64.77-24.56L64.77-24.56Q64.77-26.51 66.97-27.77 69.18-29.03 73.6-29.03L73.6-29.03Q76.7-29.03 79.37-28.31 82.03-27.59 83.76-26.25L83.76-26.25 82.37-25.17Q79.32-27.27 73.6-27.27L73.6-27.27Q69.94-27.27 68.23-26.51 66.52-25.76 66.52-24.56L66.52-24.56Q66.52-23.17 67.72-22.58 68.92-22 71.89-22L71.89-22 74.68-22Q81.46-22 85.15-18.91 88.84-15.82 88.84-10.64L88.84-10.64Q88.84-8.28 87.79-6.2 86.74-4.13 84.77-2.55 82.81-0.98 79.76-0.06 76.7 0.85 72.97 0.85L72.97 0.85Q68.26 0.85 64.16-0.57 60.05-2 57.32-4.57L57.32-4.57 58.74-5.62Q61.23-3.37 64.96-2.14 68.7-0.9 72.97-0.9L72.97-0.9Q79.56-0.9 83.32-3.69 87.08-6.47 87.08-10.64L87.08-10.64Q87.08-15.06 83.86-17.65 80.63-20.24 74.68-20.24ZM103.22 0L103.22-35.16 104.97-35.16 104.97 0 103.22 0ZM99.7 0L99.7-35.16 101.46-35.16 101.46 0 99.7 0ZM96.18 0L96.18-35.16 97.94-35.16 97.94 0 96.18 0ZM92.67 0L92.67-35.16 94.43-35.16 94.43 0 92.67 0ZM134.29-12.62L134.29-17.82 136.05-17.82 136.05 0Q132.14 1.76 127.97 1.76L127.97 1.76Q124.04 1.76 120.46 0.22 116.88-1.32 114.3-3.91 111.71-6.49 110.17-10.07 108.63-13.65 108.63-17.58 108.63-21.51 110.17-25.09 111.71-28.66 114.3-31.25 116.88-33.84 120.46-35.38 124.04-36.91 127.97-36.91L127.97-36.91Q132.46-36.91 136.42-34.97 140.37-33.03 143.08-29.64L143.08-29.64 141.66-28.59Q139.2-31.64 135.62-33.4 132.05-35.16 127.97-35.16L127.97-35.16Q124.4-35.16 121.14-33.76 117.89-32.37 115.53-30.02 113.17-27.66 111.78-24.4 110.39-21.14 110.39-17.58 110.39-14.01 111.78-10.75 113.17-7.5 115.53-5.14 117.89-2.78 121.14-1.39 124.4 0 127.97 0L127.97 0Q131.26 0 134.29-1.17L134.29-1.17 134.29-2.98Q131.24-1.76 127.97-1.76L127.97-1.76Q124.75-1.76 121.82-3.02 118.89-4.27 116.77-6.38 114.66-8.5 113.41-11.43 112.15-14.36 112.15-17.58 112.15-20.8 113.41-23.73 114.66-26.66 116.77-28.77 118.89-30.88 121.82-32.14 124.75-33.4 127.97-33.4L127.97-33.4Q131.66-33.4 134.89-31.81 138.12-30.22 140.35-27.44L140.35-27.44 138.98-26.34Q137-28.81 134.12-30.22 131.24-31.64 127.97-31.64L127.97-31.64Q125.11-31.64 122.51-30.53 119.91-29.42 118.02-27.53 116.13-25.63 115.02-23.03 113.91-20.43 113.91-17.58 113.91-14.72 115.02-12.12 116.13-9.52 118.02-7.63 119.91-5.74 122.51-4.63 125.11-3.52 127.97-3.52L127.97-3.52Q131.34-3.52 134.29-4.88L134.29-4.88 134.29-6.69Q131.34-5.27 127.97-5.27L127.97-5.27Q124.62-5.27 121.79-6.92 118.96-8.57 117.31-11.4 115.66-14.23 115.66-17.58 115.66-20.92 117.31-23.75 118.96-26.59 121.79-28.23 124.62-29.88 127.97-29.88L127.97-29.88Q130.82-29.88 133.35-28.65 135.88-27.42 137.59-25.24L137.59-25.24 136.2-24.17Q134.73-26.03 132.57-27.08 130.41-28.13 127.97-28.13L127.97-28.13Q123.6-28.13 120.51-25.02 117.42-21.92 117.42-17.58 117.42-13.23 120.51-10.13 123.6-7.03 127.97-7.03L127.97-7.03Q131.39-7.03 134.29-8.69L134.29-8.69 134.29-10.47Q131.44-8.79 127.97-8.79L127.97-8.79Q124.33-8.79 121.76-11.36 119.18-13.94 119.18-17.58 119.18-21.22 121.76-23.79 124.33-26.37 127.97-26.37L127.97-26.37Q130.02-26.37 131.83-25.48 133.63-24.58 134.85-23.05L134.85-23.05 133.44-21.97Q131.31-24.61 127.97-24.61L127.97-24.61Q125.06-24.61 123-22.55 120.94-20.48 120.94-17.58 120.94-14.67 123-12.61 125.06-10.55 127.97-10.55L127.97-10.55Q131.7-10.55 134.29-12.62L134.29-12.62ZM144.84 0L144.84-17.82 146.6-17.82 146.6 0 144.84 0ZM141.32 0L141.32-17.82 143.08-17.82 143.08 0 141.32 0ZM137.81 0L137.81-17.82 139.57-17.82 139.57 0 137.81 0ZM186.1 0L186.1-35.16 187.85-35.16 187.85 0 186.1 0ZM150.92 0L150.92-35.16 152.67-35.16 152.67 0 150.92 0ZM182.58 0L182.58-35.16 184.34-35.16 184.34 0 182.58 0ZM179.06 0L179.06-35.16 180.82-35.16 180.82 0 179.06 0ZM175.55-22.85L175.55-35.16 177.31-35.16 177.31 0 175.55 0 175.55-14.06 163.22-14.06 163.22 0 161.46 0 161.46-35.16 163.22-35.16 163.22-22.85 175.55-22.85ZM157.95 0L157.95-35.16 159.7-35.16 159.7 0 157.95 0ZM154.43 0L154.43-35.16 156.19-35.16 156.19 0 154.43 0ZM163.22-15.82L175.55-15.82 175.55-17.58 163.22-17.58 163.22-15.82ZM163.22-19.34L175.55-19.34 175.55-21.09 163.22-21.09 163.22-19.34ZM198.67 0L198.67-25.42 200.42-25.42 200.42 0 198.67 0ZM218-33.4L191.64-33.4 191.64-35.16 218-35.16 218-33.4ZM218-29.88L191.64-29.88 191.64-31.64 218-31.64 218-29.88ZM218-26.37L191.64-26.37 191.64-28.13 218-28.13 218-26.37ZM209.21 0L209.21-25.42 210.97-25.42 210.97 0 209.21 0ZM205.7 0L205.7-25.42 207.46-25.42 207.46 0 205.7 0ZM202.18 0L202.18-25.42 203.94-25.42 203.94 0 202.18 0ZM234.16-12.21L234.16 0 232.4 0 232.4-35.16 249.18-35.16 249.18-33.4 234.16-33.4 234.16-31.64 249.18-31.64 249.18-29.88 234.16-29.88 234.16-28.13 249.18-28.13 249.18-26.37 234.16-26.37 234.16-21 248-21 248-19.24 234.16-19.24 234.16-17.48 248-17.48 248-15.72 234.16-15.72 234.16-13.96 248-13.96 248-12.21 234.16-12.21ZM230.65-35.16L230.65 0 228.89 0 228.89-35.16 230.65-35.16ZM227.13-35.16L227.13 0 225.37 0 225.37-35.16 227.13-35.16ZM223.62-35.16L223.62 0 221.86 0 221.86-35.16 223.62-35.16ZM276.2-15.58L276.2-15.58 276.2-35.16 277.96-35.16 277.96-15.58Q277.96-12.79 275.82-10.79 273.69-8.79 270.68-8.79 267.68-8.79 265.54-10.79 263.41-12.79 263.41-15.58L263.41-15.58 263.41-35.16 265.17-35.16 265.17-15.58Q265.17-13.5 266.79-12.02 268.41-10.55 270.68-10.55 272.95-10.55 274.58-12.02 276.2-13.5 276.2-15.58ZM279.72-15.58L279.72-15.58 279.72-35.16 281.47-35.16 281.47-15.58Q281.47-11.3 278.3-8.29 275.13-5.27 270.68-5.27 266.24-5.27 263.07-8.29 259.89-11.3 259.89-15.58L259.89-15.58 259.89-35.16 261.65-35.16 261.65-15.58Q261.65-12.04 264.3-9.53 266.95-7.03 270.68-7.03L270.68-7.03Q274.39-7.03 277.06-9.53 279.72-12.04 279.72-15.58ZM283.23-15.58L283.23-15.58 283.23-35.16 284.99-35.16 284.99-15.58Q284.99-11.84 283.06-8.65 281.13-5.47 277.84-3.61 274.54-1.76 270.68-1.76 266.83-1.76 263.53-3.61 260.23-5.47 258.31-8.65 256.38-11.84 256.38-15.58L256.38-15.58 256.38-35.16 258.13-35.16 258.13-15.58Q258.13-12.33 259.82-9.55 261.5-6.76 264.4-5.14 267.29-3.52 270.68-3.52 274.08-3.52 276.97-5.14 279.86-6.76 281.55-9.55 283.23-12.33 283.23-15.58ZM286.75-15.58L286.75-15.58 286.75-35.16 288.51-35.16 288.51-15.58Q288.51-12.06 287.09-8.85 285.67-5.64 283.28-3.32 280.89-1 277.59 0.38 274.3 1.76 270.68 1.76 267.07 1.76 263.77 0.38 260.48-1 258.09-3.32 255.69-5.64 254.28-8.85 252.86-12.06 252.86-15.58L252.86-15.58 252.86-35.16 254.62-35.16 254.62-15.58Q254.62-11.38 256.78-7.79 258.94-4.2 262.64-2.1 266.34 0 270.68 0 275.03 0 278.73-2.1 282.43-4.2 284.59-7.79 286.75-11.38 286.75-15.58ZM292.92 0L292.92-35.16 294.68-35.16 294.68 0 292.92 0ZM303.47 0L303.47-35.16 305.23-35.16 305.23-8.79 318.19-8.79 318.19-7.03 305.23-7.03 305.23-5.27 318.19-5.27 318.19-3.52 305.23-3.52 305.23-1.76 318.19-1.76 318.19 0 303.47 0ZM299.95 0L299.95-35.16 301.71-35.16 301.71 0 299.95 0ZM296.44 0L296.44-35.16 298.2-35.16 298.2 0 296.44 0Z" opacity="1" transform="matrix(1,0,0,1,0,0)" fill="#ffffff" class="wordmark-text-0" data-fill-palette-color="primary" id="text-0"></path></svg></g></svg></g></svg></g></svg></g><g transform="matrix(1,0,0,1,406.94898406303065,0)"><svg viewBox="0 0 66.90580988795301 66.90580988795301" height="66.90580988795301" width="66.90580988795301"><g data-palette-color="#f6f6f6"><rect width="18.28758803604049" height="66.90580988795301" fill="#ffffff" stroke="transparent" data-fill-palette-color="accent" x="0" fill-opacity="1"></rect><rect width="18.28758803604049" height="66.90580988795301" fill="#ffffff" stroke="transparent" data-fill-palette-color="accent" x="22.30193662931767" fill-opacity="0.75"></rect><rect width="18.28758803604049" height="66.90580988795301" fill="#ffffff" stroke="transparent" data-fill-palette-color="accent" x="44.60387325863534" fill-opacity="0.5"></rect></g></svg></g></svg></g><defs></defs></svg><rect width="395.52" height="55.84534812075893" fill="none" stroke="none" visibility="hidden"></rect></g></svg></g></svg>